<svg xmlns="http://www.w3.org/2000/svg" width="299.312" height="111.208" data-name="Group 10672"><path d="m69.337 101.8-1.8-1.313q-1.405-2.415-1.407-23.771V69.5a24.244 24.244 0 0 1 .47-5.466q.862-3.574 9.134-16.411 14.679-22.75 27.021-38.429V6.64l-.787-.734H90.57q-2.414 4.235-3.822 6.637l-8.667 14.513Q65.124 47.99 60.51 54.914L50.283 35.809Q39.112 14.875 32.48 8.829a27.365 27.365 0 0 0-7.256-4.742Q19.829 5.543.775 9.047l-.775.8v4.082l.858.8a21.252 21.252 0 0 1 5.849.474q1.254.469 4.847 3.9 7.419 7.068 19.913 26.83 12.257 19.4 12.259 22.171v8.6q0 21.366-1.4 23.771l-1.8 1.313a67.669 67.669 0 0 1-9.6.951l-.777.726v4.962l.7.661q7.341-.444 24.053-.445 16.314 0 24.05.445l.777-.737v-4.886l-.777-.726a67.478 67.478 0 0 1-9.606-.95" data-name="Path 3921"/><g data-name="Group 10670"><path d="M130.249 91.23q-4.685 6.859-12.573 6.856-9.29 0-9.284-9.92c0-4.128 1.488-7.211 4.484-9.225s8.784-3.9 17.374-5.648V91.23Zm84.257-40.036.547-12.979a15.424 15.424 0 0 0-5.547-.875q-5.533 0-8.746 2.916-6.873 7-11.713 12.251l.162-14.292-1.719-.95a142.239 142.239 0 0 1-29.59 6.052l-.779.8v4.087l.779.726c3.906.142 6.17.269 6.787.368 1.721.245 2.838.852 3.363 1.819q1.169 2.193 1.166 16.781v10.421q0 10.874-.543 20.351c-.1 1.9-.682 3.064-1.717 3.5q-1.8.877-9.3 1.093l-.057.059c-3.332-.113-5.477-.422-6.389-.928q-1.444-.806-1.832-3.829t-.4-14.039q0-3.424.4-13.636.228-6.13.234-8.9 0-11.309-4.769-16.775-6.549-7.515-21.938-7.515a40.052 40.052 0 0 0-7.1.513q-6.481 1.167-19.368 10.066l-.383 8.6.542 1.022 3.98.875 1.019-.508 2.965-6.787q3.512-2.331 9.605-2.332a18.082 18.082 0 0 1 9.524 2.406q6.558 3.94 6.562 15.538-25.3 4.155-33.655 9.333-7.729 4.735-7.726 16.119 0 8.6 4.64 13.485t13.316 4.89a29.117 29.117 0 0 0 3.124-.148 10.692 10.692 0 0 0 5.152-1.53l15.148-10.788-.7 9.768.7.805q6.092-.368 12.731-.365 8.138 0 14.493.336l.185.171q7.343-.519 21.322-.507 11.317 0 22.8.439l.775-.735v-4.444l-.775-.661c-6.248-.188-9.861-.552-10.859-1.093-.98-.529-1.529-1.694-1.635-3.5-.355-6.32-.549-11.254-.549-14.8V66.8c0-3.5.785-6.147 2.348-7.951a12.3 12.3 0 0 1 9.676-4.374 11.918 11.918 0 0 1 10.152 4.961l3.285-.948c.153-2.724.258-5.149.311-7.293" data-name="Path 3922"/><path d="M268.469 70.376q0 15.969-.229 16.988c-.525 2.242-2.215 4.326-5.084 6.273a17.786 17.786 0 0 1-10.3 3.286c-4.473 0-8.051-1.3-10.7-3.869q-7.564-7.283-7.566-22.387a44.749 44.749 0 0 1 1.71-12.835q3.12-10.354 13.9-10.354a23.658 23.658 0 0 1 7.5 1.167q5.157 1.74 10.771 8.019v13.712Zm30.062 33.393a48.041 48.041 0 0 1-7.807-.941 2.723 2.723 0 0 1-1.719-1.536q-1.023-2.033-1.016-22.528V55.207q0-31.429.7-47.113.32-6.927.314-7.214l-1.72-.88a156.83 156.83 0 0 1-30.213 6.053l-.783.8v4.01l.783.8q5.932.225 7.182.442c1.773.288 2.834 1.065 3.2 2.329q1.016 3.431 1.014 22.6v4.088a36.005 36.005 0 0 0-15.146-3.212 26.551 26.551 0 0 0-9.523 1.458q-4.3 1.685-13.668 7.954-8.048 5.4-9.674 7.506-6.335 8.1-6.332 22.608 0 14.952 8.2 24.356t21.551 9.406q5.619 0 8.115-1.092a72.691 72.691 0 0 0 8.441-6.711c3.49-3.009 6.16-5.244 8.039-6.7q0 8.391-.311 11.958l.7.507q10-.507 15.852-.507 6.16 0 13.82.507l.781-.727V104.5Z" data-name="Path 3923"/></g></svg>