<svg xmlns="http://www.w3.org/2000/svg" width="102.757" height="105.014"><path d="m69.337 97.713-1.8-1.313q-1.405-2.415-1.407-23.771v-7.216a24.244 24.244 0 0 1 .47-5.466q.862-3.574 9.134-16.411 14.679-22.75 27.021-38.429V2.553l-.787-.734H90.57q-2.414 4.235-3.822 6.637l-8.667 14.513Q65.124 43.903 60.51 50.827L50.283 31.722Q39.112 10.788 32.48 4.742A27.365 27.365 0 0 0 25.224 0Q19.829 1.456.775 4.96L0 5.76v4.082l.858.8a21.252 21.252 0 0 1 5.849.474q1.254.469 4.847 3.9 7.419 7.068 19.913 26.83 12.257 19.4 12.259 22.171v8.6q0 21.366-1.4 23.771l-1.8 1.313a67.669 67.669 0 0 1-9.6.951l-.777.726v4.962l.7.661q7.341-.444 24.053-.445 16.314 0 24.05.445l.777-.737v-4.886l-.777-.726a67.478 67.478 0 0 1-9.606-.95" data-name="Path 3936"/></svg>